# xmcd
#
# Track frame offsets:
#	182
#	13762
#	19895
#	25577
#	28977
#	37932
#	47112
#	54182
#	62380
#	73667
#	77812
#	83595
#	90582
#	94772
#	97942
#	109857
#	114512
#	120400
#	125637
#	135242
#	144375
#	151647
#	160645
#	166735
#
# Disc length: 2372 seconds
#
# Revision: 0
# Processed by: cddbd v1.4PL0 Copyright (c) Steve Scherf et al.
# Submitted via: audiograbber 1.80
#
DISCID=19094218
DTITLE=Various Artist - Cowboy Romantik-Super Country Hits
DYEAR=1900
DGENRE=
TTITLE0=Jeden Abend auf der Ranch
TTITLE1=Die Cowboys aus Oklahoma
TTITLE2=Durch Texas fährt die Texas-Bahn
TTITLE3=Über die Prärie
TTITLE4=Es hängt ein Pferdehalfter an der Wand
TTITLE5=Tom Dooley
TTITLE6=Nimm mich mit zu den blauen Bergen
TTITLE7=Oklahoma Tom
TTITLE8=High Noon
TTITLE9=Die Sterne der Prärie
TTITLE10=Der gute alte Joe
TTITLE11=Geisterreiter
TTITLE12=Von den Blauen Bergen kommen wir
TTITLE13=Wenn dei Sonne scheint in Texas
TTITLE14=Weiber und Gold
TTITLE15=Tennessee Waltz
TTITLE16=Casanova der Prärie
TTITLE17=Smoky
TTITLE18=Der alte Cowboy
TTITLE19=Ballade für zwei Pistolen
TTITLE20=So Long sprach Old Joe
TTITLE21=7000 Rinder
TTITLE22=Cowboy's Goodbye Song
TTITLE23=Im Picadilly
EXTD=
EXTT0=
EXTT1=
EXTT2=
EXTT3=
EXTT4=
EXTT5=
EXTT6=
EXTT7=
EXTT8=
EXTT9=
EXTT10=
EXTT11=
EXTT12=
EXTT13=
EXTT14=
EXTT15=
EXTT16=
EXTT17=
EXTT18=
EXTT19=
EXTT20=
EXTT21=
EXTT22=
EXTT23=
PLAYORDER=
